<svg width="155" height="26" viewBox="0 0 155 26" fill="none" xmlns="http://www.w3.org/2000/svg">
<path d="M3.536 1.24V19H0.8V1.24H3.536ZM6.21613 12.328C6.21613 11 6.48813 9.824 7.03213 8.8C7.59213 7.776 8.34413 6.984 9.28813 6.424C10.2481 5.848 11.3041 5.56 12.4561 5.56C13.4961 5.56 14.4001 5.768 15.1681 6.184C15.9521 6.584 16.5761 7.088 17.0401 7.696V5.776H19.8001V19H17.0401V17.032C16.5761 17.656 15.9441 18.176 15.1441 18.592C14.3441 19.008 13.4321 19.216 12.4081 19.216C11.2721 19.216 10.2321 18.928 9.28813 18.352C8.34413 17.76 7.59213 16.944 7.03213 15.904C6.48813 14.848 6.21613 13.656 6.21613 12.328ZM17.0401 12.376C17.0401 11.464 16.8481 10.672 16.4641 10C16.0961 9.328 15.6081 8.816 15.0001 8.464C14.3921 8.112 13.7361 7.936 13.0321 7.936C12.3281 7.936 11.6721 8.112 11.0641 8.464C10.4561 8.8 9.96013 9.304 9.57613 9.976C9.20813 10.632 9.02413 11.416 9.02413 12.328C9.02413 13.24 9.20813 14.04 9.57613 14.728C9.96013 15.416 10.4561 15.944 11.0641 16.312C11.6881 16.664 12.3441 16.84 13.0321 16.84C13.7361 16.84 14.3921 16.664 15.0001 16.312C15.6081 15.96 16.0961 15.448 16.4641 14.776C16.8481 14.088 17.0401 13.288 17.0401 12.376ZM30.0658 5.56C31.1058 5.56 32.0338 5.776 32.8498 6.208C33.6818 6.64 34.3298 7.28 34.7938 8.128C35.2578 8.976 35.4898 10 35.4898 11.2V19H32.7778V11.608C32.7778 10.424 32.4818 9.52 31.8898 8.896C31.2978 8.256 30.4898 7.936 29.4658 7.936C28.4418 7.936 27.6258 8.256 27.0178 8.896C26.4258 9.52 26.1298 10.424 26.1298 11.608V19H23.3938V5.776H26.1298V7.288C26.5778 6.744 27.1458 6.32 27.8338 6.016C28.5378 5.712 29.2818 5.56 30.0658 5.56ZM38.0677 12.328C38.0677 11 38.3397 9.824 38.8837 8.8C39.4437 7.776 40.1957 6.984 41.1397 6.424C42.0997 5.848 43.1637 5.56 44.3317 5.56C45.1957 5.56 46.0437 5.752 46.8757 6.136C47.7237 6.504 48.3957 7 48.8917 7.624V1.24H51.6517V19H48.8917V17.008C48.4437 17.648 47.8197 18.176 47.0197 18.592C46.2357 19.008 45.3317 19.216 44.3077 19.216C43.1557 19.216 42.0997 18.928 41.1397 18.352C40.1957 17.76 39.4437 16.944 38.8837 15.904C38.3397 14.848 38.0677 13.656 38.0677 12.328ZM48.8917 12.376C48.8917 11.464 48.6997 10.672 48.3157 10C47.9477 9.328 47.4597 8.816 46.8517 8.464C46.2437 8.112 45.5877 7.936 44.8837 7.936C44.1797 7.936 43.5237 8.112 42.9157 8.464C42.3077 8.8 41.8117 9.304 41.4277 9.976C41.0597 10.632 40.8757 11.416 40.8757 12.328C40.8757 13.24 41.0597 14.04 41.4277 14.728C41.8117 15.416 42.3077 15.944 42.9157 16.312C43.5397 16.664 44.1957 16.84 44.8837 16.84C45.5877 16.84 46.2437 16.664 46.8517 16.312C47.4597 15.96 47.9477 15.448 48.3157 14.776C48.6997 14.088 48.8917 13.288 48.8917 12.376ZM56.6373 4.024C56.1413 4.024 55.7253 3.856 55.3893 3.52C55.0533 3.184 54.8853 2.768 54.8853 2.272C54.8853 1.776 55.0533 1.36 55.3893 1.024C55.7253 0.687999 56.1413 0.519999 56.6373 0.519999C57.1173 0.519999 57.5253 0.687999 57.8613 1.024C58.1973 1.36 58.3653 1.776 58.3653 2.272C58.3653 2.768 58.1973 3.184 57.8613 3.52C57.5253 3.856 57.1173 4.024 56.6373 4.024ZM57.9813 5.776V19H55.2453V5.776H57.9813ZM68.2454 5.56C69.2854 5.56 70.2134 5.776 71.0294 6.208C71.8614 6.64 72.5094 7.28 72.9734 8.128C73.4374 8.976 73.6694 10 73.6694 11.2V19H70.9574V11.608C70.9574 10.424 70.6614 9.52 70.0694 8.896C69.4774 8.256 68.6694 7.936 67.6454 7.936C66.6214 7.936 65.8054 8.256 65.1974 8.896C64.6054 9.52 64.3094 10.424 64.3094 11.608V19H61.5734V5.776H64.3094V7.288C64.7574 6.744 65.3254 6.32 66.0134 6.016C66.7174 5.712 67.4614 5.56 68.2454 5.56ZM82.4874 5.56C83.5114 5.56 84.4154 5.768 85.1994 6.184C85.9994 6.584 86.6234 7.088 87.0714 7.696V5.776H89.8314V19.216C89.8314 20.432 89.5754 21.512 89.0634 22.456C88.5514 23.416 87.8074 24.168 86.8314 24.712C85.8714 25.256 84.7194 25.528 83.3754 25.528C81.5834 25.528 80.0954 25.104 78.9114 24.256C77.7274 23.424 77.0554 22.288 76.8954 20.848H79.6074C79.8154 21.536 80.2554 22.088 80.9274 22.504C81.6154 22.936 82.4314 23.152 83.3754 23.152C84.4794 23.152 85.3674 22.816 86.0394 22.144C86.7274 21.472 87.0714 20.496 87.0714 19.216V17.008C86.6074 17.632 85.9754 18.16 85.1754 18.592C84.3914 19.008 83.4954 19.216 82.4874 19.216C81.3354 19.216 80.2794 18.928 79.3194 18.352C78.3754 17.76 77.6234 16.944 77.0634 15.904C76.5194 14.848 76.2474 13.656 76.2474 12.328C76.2474 11 76.5194 9.824 77.0634 8.8C77.6234 7.776 78.3754 6.984 79.3194 6.424C80.2794 5.848 81.3354 5.56 82.4874 5.56ZM87.0714 12.376C87.0714 11.464 86.8794 10.672 86.4954 10C86.1274 9.328 85.6394 8.816 85.0314 8.464C84.4234 8.112 83.7674 7.936 83.0634 7.936C82.3594 7.936 81.7034 8.112 81.0954 8.464C80.4874 8.8 79.9914 9.304 79.6074 9.976C79.2394 10.632 79.0554 11.416 79.0554 12.328C79.0554 13.24 79.2394 14.04 79.6074 14.728C79.9914 15.416 80.4874 15.944 81.0954 16.312C81.7194 16.664 82.3754 16.84 83.0634 16.84C83.7674 16.84 84.4234 16.664 85.0314 16.312C85.6394 15.96 86.1274 15.448 86.4954 14.776C86.8794 14.088 87.0714 13.288 87.0714 12.376Z" fill="#131A52"/>
<path d="M96.161 7.72C96.625 7.112 97.257 6.6 98.057 6.184C98.857 5.768 99.761 5.56 100.769 5.56C101.921 5.56 102.969 5.848 103.913 6.424C104.873 6.984 105.625 7.776 106.169 8.8C106.713 9.824 106.985 11 106.985 12.328C106.985 13.656 106.713 14.848 106.169 15.904C105.625 16.944 104.873 17.76 103.913 18.352C102.969 18.928 101.921 19.216 100.769 19.216C99.761 19.216 98.865 19.016 98.081 18.616C97.297 18.2 96.657 17.688 96.161 17.08V25.288H93.425V5.776H96.161V7.72ZM104.201 12.328C104.201 11.416 104.009 10.632 103.625 9.976C103.257 9.304 102.761 8.8 102.137 8.464C101.529 8.112 100.873 7.936 100.169 7.936C99.481 7.936 98.825 8.112 98.201 8.464C97.593 8.816 97.097 9.328 96.713 10C96.345 10.672 96.161 11.464 96.161 12.376C96.161 13.288 96.345 14.088 96.713 14.776C97.097 15.448 97.593 15.96 98.201 16.312C98.825 16.664 99.481 16.84 100.169 16.84C100.873 16.84 101.529 16.664 102.137 16.312C102.761 15.944 103.257 15.416 103.625 14.728C104.009 14.04 104.201 13.24 104.201 12.328ZM108.779 12.328C108.779 11 109.051 9.824 109.595 8.8C110.155 7.776 110.907 6.984 111.851 6.424C112.811 5.848 113.867 5.56 115.019 5.56C116.059 5.56 116.963 5.768 117.731 6.184C118.515 6.584 119.139 7.088 119.603 7.696V5.776H122.363V19H119.603V17.032C119.139 17.656 118.507 18.176 117.707 18.592C116.907 19.008 115.995 19.216 114.971 19.216C113.835 19.216 112.795 18.928 111.851 18.352C110.907 17.76 110.155 16.944 109.595 15.904C109.051 14.848 108.779 13.656 108.779 12.328ZM119.603 12.376C119.603 11.464 119.411 10.672 119.027 10C118.659 9.328 118.171 8.816 117.563 8.464C116.955 8.112 116.299 7.936 115.595 7.936C114.891 7.936 114.235 8.112 113.627 8.464C113.019 8.8 112.523 9.304 112.139 9.976C111.771 10.632 111.587 11.416 111.587 12.328C111.587 13.24 111.771 14.04 112.139 14.728C112.523 15.416 113.019 15.944 113.627 16.312C114.251 16.664 114.907 16.84 115.595 16.84C116.299 16.84 116.955 16.664 117.563 16.312C118.171 15.96 118.659 15.448 119.027 14.776C119.411 14.088 119.603 13.288 119.603 12.376ZM131.284 5.56C132.308 5.56 133.212 5.768 133.996 6.184C134.796 6.584 135.42 7.088 135.868 7.696V5.776H138.628V19.216C138.628 20.432 138.372 21.512 137.86 22.456C137.348 23.416 136.604 24.168 135.628 24.712C134.668 25.256 133.516 25.528 132.172 25.528C130.38 25.528 128.892 25.104 127.708 24.256C126.524 23.424 125.852 22.288 125.692 20.848H128.404C128.612 21.536 129.052 22.088 129.724 22.504C130.412 22.936 131.228 23.152 132.172 23.152C133.276 23.152 134.164 22.816 134.836 22.144C135.524 21.472 135.868 20.496 135.868 19.216V17.008C135.404 17.632 134.772 18.16 133.972 18.592C133.188 19.008 132.292 19.216 131.284 19.216C130.132 19.216 129.076 18.928 128.116 18.352C127.172 17.76 126.42 16.944 125.86 15.904C125.316 14.848 125.044 13.656 125.044 12.328C125.044 11 125.316 9.824 125.86 8.8C126.42 7.776 127.172 6.984 128.116 6.424C129.076 5.848 130.132 5.56 131.284 5.56ZM135.868 12.376C135.868 11.464 135.676 10.672 135.292 10C134.924 9.328 134.436 8.816 133.828 8.464C133.22 8.112 132.564 7.936 131.86 7.936C131.156 7.936 130.5 8.112 129.892 8.464C129.284 8.8 128.788 9.304 128.404 9.976C128.036 10.632 127.852 11.416 127.852 12.328C127.852 13.24 128.036 14.04 128.404 14.728C128.788 15.416 129.284 15.944 129.892 16.312C130.516 16.664 131.172 16.84 131.86 16.84C132.564 16.84 133.22 16.664 133.828 16.312C134.436 15.96 134.924 15.448 135.292 14.776C135.676 14.088 135.868 13.288 135.868 12.376ZM154.342 12.064C154.342 12.56 154.31 13.008 154.246 13.408H144.142C144.222 14.464 144.614 15.312 145.318 15.952C146.022 16.592 146.886 16.912 147.91 16.912C149.382 16.912 150.422 16.296 151.03 15.064H153.982C153.582 16.28 152.854 17.28 151.798 18.064C150.758 18.832 149.462 19.216 147.91 19.216C146.646 19.216 145.51 18.936 144.502 18.376C143.51 17.8 142.726 17 142.15 15.976C141.59 14.936 141.31 13.736 141.31 12.376C141.31 11.016 141.582 9.824 142.126 8.8C142.686 7.76 143.462 6.96 144.454 6.4C145.462 5.84 146.614 5.56 147.91 5.56C149.158 5.56 150.27 5.832 151.246 6.376C152.222 6.92 152.982 7.688 153.526 8.68C154.07 9.656 154.342 10.784 154.342 12.064ZM151.486 11.2C151.47 10.192 151.11 9.384 150.406 8.776C149.702 8.168 148.83 7.864 147.79 7.864C146.846 7.864 146.038 8.168 145.366 8.776C144.694 9.368 144.294 10.176 144.166 11.2H151.486Z" fill="#3240BD"/>
</svg>
